<mxfile host="Electron" modified="2024-02-28T08:40:48.974Z" agent="Mozilla/5.0 (Windows NT 10.0; Win64; x64) AppleWebKit/537.36 (KHTML, like Gecko) draw.io/23.1.5 Chrome/120.0.6099.109 Electron/28.1.0 Safari/537.36" etag="YD7IHd018lL-JdKCi2z2" version="23.1.5" type="device">
  <diagram name="Сторінка-1" id="qn8bp06klAf4RvDQjn4W">
    <mxGraphModel dx="1500" dy="899" grid="1" gridSize="10" guides="1" tooltips="1" connect="1" arrows="1" fold="1" page="1" pageScale="1" pageWidth="1169" pageHeight="827" math="0" shadow="0">
      <root>
        <mxCell id="0" />
        <mxCell id="1" parent="0" />
        <mxCell id="OUrxc4tBGH3jOHiq0MZ--24" style="edgeStyle=orthogonalEdgeStyle;rounded=0;orthogonalLoop=1;jettySize=auto;html=1;exitX=1;exitY=0;exitDx=0;exitDy=0;entryX=0;entryY=0;entryDx=0;entryDy=0;" parent="1" source="OUrxc4tBGH3jOHiq0MZ--1" target="OUrxc4tBGH3jOHiq0MZ--2" edge="1">
          <mxGeometry relative="1" as="geometry" />
        </mxCell>
        <mxCell id="OUrxc4tBGH3jOHiq0MZ--26" style="edgeStyle=orthogonalEdgeStyle;rounded=0;orthogonalLoop=1;jettySize=auto;html=1;exitX=0.5;exitY=1;exitDx=0;exitDy=0;entryX=0;entryY=0.5;entryDx=0;entryDy=0;" parent="1" source="OUrxc4tBGH3jOHiq0MZ--1" target="OUrxc4tBGH3jOHiq0MZ--3" edge="1">
          <mxGeometry relative="1" as="geometry" />
        </mxCell>
        <mxCell id="OUrxc4tBGH3jOHiq0MZ--1" value="Сторінка логування" style="ellipse;whiteSpace=wrap;html=1;" parent="1" vertex="1">
          <mxGeometry x="190" y="259" width="120" height="80" as="geometry" />
        </mxCell>
        <mxCell id="OUrxc4tBGH3jOHiq0MZ--22" style="edgeStyle=orthogonalEdgeStyle;rounded=0;orthogonalLoop=1;jettySize=auto;html=1;exitX=0;exitY=0.5;exitDx=0;exitDy=0;entryX=1;entryY=0.5;entryDx=0;entryDy=0;" parent="1" source="OUrxc4tBGH3jOHiq0MZ--2" target="OUrxc4tBGH3jOHiq0MZ--1" edge="1">
          <mxGeometry relative="1" as="geometry" />
        </mxCell>
        <mxCell id="OUrxc4tBGH3jOHiq0MZ--27" style="edgeStyle=orthogonalEdgeStyle;rounded=0;orthogonalLoop=1;jettySize=auto;html=1;entryX=1;entryY=0.5;entryDx=0;entryDy=0;" parent="1" source="OUrxc4tBGH3jOHiq0MZ--2" target="OUrxc4tBGH3jOHiq0MZ--3" edge="1">
          <mxGeometry relative="1" as="geometry" />
        </mxCell>
        <mxCell id="OUrxc4tBGH3jOHiq0MZ--2" value="Сторінка реєстрації" style="ellipse;whiteSpace=wrap;html=1;" parent="1" vertex="1">
          <mxGeometry x="354" y="259" width="120" height="80" as="geometry" />
        </mxCell>
        <mxCell id="OUrxc4tBGH3jOHiq0MZ--29" style="edgeStyle=orthogonalEdgeStyle;rounded=0;orthogonalLoop=1;jettySize=auto;html=1;exitX=0.5;exitY=1;exitDx=0;exitDy=0;entryX=0.5;entryY=0;entryDx=0;entryDy=0;" parent="1" source="OUrxc4tBGH3jOHiq0MZ--3" target="OUrxc4tBGH3jOHiq0MZ--19" edge="1">
          <mxGeometry relative="1" as="geometry" />
        </mxCell>
        <mxCell id="OUrxc4tBGH3jOHiq0MZ--31" style="edgeStyle=orthogonalEdgeStyle;rounded=0;orthogonalLoop=1;jettySize=auto;html=1;exitX=1;exitY=1;exitDx=0;exitDy=0;" parent="1" source="OUrxc4tBGH3jOHiq0MZ--3" target="OUrxc4tBGH3jOHiq0MZ--12" edge="1">
          <mxGeometry relative="1" as="geometry" />
        </mxCell>
        <mxCell id="OUrxc4tBGH3jOHiq0MZ--34" style="edgeStyle=orthogonalEdgeStyle;rounded=0;orthogonalLoop=1;jettySize=auto;html=1;exitX=0;exitY=1;exitDx=0;exitDy=0;" parent="1" source="OUrxc4tBGH3jOHiq0MZ--3" target="OUrxc4tBGH3jOHiq0MZ--9" edge="1">
          <mxGeometry relative="1" as="geometry" />
        </mxCell>
        <mxCell id="OUrxc4tBGH3jOHiq0MZ--39" style="edgeStyle=orthogonalEdgeStyle;rounded=0;orthogonalLoop=1;jettySize=auto;html=1;exitX=1;exitY=1;exitDx=0;exitDy=0;entryX=0.5;entryY=0;entryDx=0;entryDy=0;" parent="1" source="OUrxc4tBGH3jOHiq0MZ--3" target="OUrxc4tBGH3jOHiq0MZ--11" edge="1">
          <mxGeometry relative="1" as="geometry" />
        </mxCell>
        <mxCell id="OUrxc4tBGH3jOHiq0MZ--45" style="edgeStyle=orthogonalEdgeStyle;rounded=0;orthogonalLoop=1;jettySize=auto;html=1;exitX=1;exitY=1;exitDx=0;exitDy=0;entryX=0;entryY=0.5;entryDx=0;entryDy=0;" parent="1" source="OUrxc4tBGH3jOHiq0MZ--3" target="OUrxc4tBGH3jOHiq0MZ--4" edge="1">
          <mxGeometry relative="1" as="geometry" />
        </mxCell>
        <mxCell id="OUrxc4tBGH3jOHiq0MZ--65" style="edgeStyle=orthogonalEdgeStyle;rounded=0;orthogonalLoop=1;jettySize=auto;html=1;exitX=0;exitY=1;exitDx=0;exitDy=0;entryX=0.5;entryY=1;entryDx=0;entryDy=0;" parent="1" source="OUrxc4tBGH3jOHiq0MZ--3" target="OUrxc4tBGH3jOHiq0MZ--10" edge="1">
          <mxGeometry relative="1" as="geometry" />
        </mxCell>
        <mxCell id="NxfS1QQtn7vK0laoRYM_-5" style="edgeStyle=orthogonalEdgeStyle;rounded=0;orthogonalLoop=1;jettySize=auto;html=1;exitX=0;exitY=1;exitDx=0;exitDy=0;entryX=0;entryY=0.5;entryDx=0;entryDy=0;" edge="1" parent="1" source="OUrxc4tBGH3jOHiq0MZ--3" target="OUrxc4tBGH3jOHiq0MZ--15">
          <mxGeometry relative="1" as="geometry">
            <Array as="points">
              <mxPoint x="230" y="447" />
              <mxPoint x="230" y="720" />
            </Array>
          </mxGeometry>
        </mxCell>
        <mxCell id="OUrxc4tBGH3jOHiq0MZ--3" value="Домашня сторінка" style="ellipse;whiteSpace=wrap;html=1;" parent="1" vertex="1">
          <mxGeometry x="270" y="379" width="120" height="80" as="geometry" />
        </mxCell>
        <mxCell id="OUrxc4tBGH3jOHiq0MZ--4" value="Додавання особи" style="ellipse;whiteSpace=wrap;html=1;" parent="1" vertex="1">
          <mxGeometry x="460" y="589" width="120" height="80" as="geometry" />
        </mxCell>
        <mxCell id="OUrxc4tBGH3jOHiq0MZ--42" style="edgeStyle=orthogonalEdgeStyle;rounded=0;orthogonalLoop=1;jettySize=auto;html=1;exitX=0.5;exitY=0;exitDx=0;exitDy=0;entryX=0.5;entryY=1;entryDx=0;entryDy=0;" parent="1" source="OUrxc4tBGH3jOHiq0MZ--5" target="OUrxc4tBGH3jOHiq0MZ--17" edge="1">
          <mxGeometry relative="1" as="geometry" />
        </mxCell>
        <mxCell id="OUrxc4tBGH3jOHiq0MZ--5" value="Профіль особи" style="ellipse;whiteSpace=wrap;html=1;" parent="1" vertex="1">
          <mxGeometry x="760" y="469" width="120" height="80" as="geometry" />
        </mxCell>
        <mxCell id="OUrxc4tBGH3jOHiq0MZ--21" style="edgeStyle=orthogonalEdgeStyle;rounded=0;orthogonalLoop=1;jettySize=auto;html=1;exitX=0.5;exitY=1;exitDx=0;exitDy=0;entryX=0.5;entryY=0;entryDx=0;entryDy=0;" parent="1" source="OUrxc4tBGH3jOHiq0MZ--7" target="OUrxc4tBGH3jOHiq0MZ--1" edge="1">
          <mxGeometry relative="1" as="geometry" />
        </mxCell>
        <mxCell id="OUrxc4tBGH3jOHiq0MZ--54" style="edgeStyle=orthogonalEdgeStyle;rounded=0;orthogonalLoop=1;jettySize=auto;html=1;exitX=1;exitY=0.5;exitDx=0;exitDy=0;entryX=0;entryY=0.5;entryDx=0;entryDy=0;" parent="1" source="OUrxc4tBGH3jOHiq0MZ--7" target="OUrxc4tBGH3jOHiq0MZ--53" edge="1">
          <mxGeometry relative="1" as="geometry" />
        </mxCell>
        <mxCell id="OUrxc4tBGH3jOHiq0MZ--7" value="Головна сторінка" style="ellipse;whiteSpace=wrap;html=1;" parent="1" vertex="1">
          <mxGeometry x="190" y="139" width="120" height="80" as="geometry" />
        </mxCell>
        <mxCell id="OUrxc4tBGH3jOHiq0MZ--52" style="edgeStyle=orthogonalEdgeStyle;rounded=0;orthogonalLoop=1;jettySize=auto;html=1;exitX=0.5;exitY=0;exitDx=0;exitDy=0;entryX=0.5;entryY=1;entryDx=0;entryDy=0;" parent="1" source="OUrxc4tBGH3jOHiq0MZ--8" target="OUrxc4tBGH3jOHiq0MZ--13" edge="1">
          <mxGeometry relative="1" as="geometry" />
        </mxCell>
        <mxCell id="OUrxc4tBGH3jOHiq0MZ--63" style="edgeStyle=orthogonalEdgeStyle;rounded=0;orthogonalLoop=1;jettySize=auto;html=1;exitX=1;exitY=0.5;exitDx=0;exitDy=0;entryX=0.5;entryY=0;entryDx=0;entryDy=0;" parent="1" source="OUrxc4tBGH3jOHiq0MZ--8" target="OUrxc4tBGH3jOHiq0MZ--18" edge="1">
          <mxGeometry relative="1" as="geometry" />
        </mxCell>
        <mxCell id="OUrxc4tBGH3jOHiq0MZ--8" value="Подія" style="ellipse;whiteSpace=wrap;html=1;" parent="1" vertex="1">
          <mxGeometry x="760" y="189" width="120" height="80" as="geometry" />
        </mxCell>
        <mxCell id="OUrxc4tBGH3jOHiq0MZ--9" value="Стоорінка статистик" style="ellipse;whiteSpace=wrap;html=1;" parent="1" vertex="1">
          <mxGeometry x="60" y="479" width="120" height="80" as="geometry" />
        </mxCell>
        <mxCell id="OUrxc4tBGH3jOHiq0MZ--10" value="Галерея" style="ellipse;whiteSpace=wrap;html=1;" parent="1" vertex="1">
          <mxGeometry x="40" y="319" width="120" height="80" as="geometry" />
        </mxCell>
        <mxCell id="OUrxc4tBGH3jOHiq0MZ--11" value="Сторінка збігів" style="ellipse;whiteSpace=wrap;html=1;" parent="1" vertex="1">
          <mxGeometry x="474" y="499" width="120" height="80" as="geometry" />
        </mxCell>
        <mxCell id="OUrxc4tBGH3jOHiq0MZ--32" style="edgeStyle=orthogonalEdgeStyle;rounded=0;orthogonalLoop=1;jettySize=auto;html=1;exitX=0.5;exitY=1;exitDx=0;exitDy=0;entryX=1;entryY=0.5;entryDx=0;entryDy=0;" parent="1" source="OUrxc4tBGH3jOHiq0MZ--12" target="OUrxc4tBGH3jOHiq0MZ--4" edge="1">
          <mxGeometry relative="1" as="geometry" />
        </mxCell>
        <mxCell id="OUrxc4tBGH3jOHiq0MZ--33" style="edgeStyle=orthogonalEdgeStyle;rounded=0;orthogonalLoop=1;jettySize=auto;html=1;exitX=1;exitY=0.5;exitDx=0;exitDy=0;entryX=0;entryY=0.5;entryDx=0;entryDy=0;" parent="1" source="OUrxc4tBGH3jOHiq0MZ--12" target="OUrxc4tBGH3jOHiq0MZ--5" edge="1">
          <mxGeometry relative="1" as="geometry" />
        </mxCell>
        <mxCell id="OUrxc4tBGH3jOHiq0MZ--43" style="edgeStyle=orthogonalEdgeStyle;rounded=0;orthogonalLoop=1;jettySize=auto;html=1;exitX=1;exitY=0;exitDx=0;exitDy=0;entryX=0.5;entryY=1;entryDx=0;entryDy=0;" parent="1" source="OUrxc4tBGH3jOHiq0MZ--12" target="OUrxc4tBGH3jOHiq0MZ--16" edge="1">
          <mxGeometry relative="1" as="geometry" />
        </mxCell>
        <mxCell id="OUrxc4tBGH3jOHiq0MZ--61" style="edgeStyle=orthogonalEdgeStyle;rounded=0;orthogonalLoop=1;jettySize=auto;html=1;exitX=0.5;exitY=1;exitDx=0;exitDy=0;entryX=1;entryY=0.5;entryDx=0;entryDy=0;" parent="1" source="OUrxc4tBGH3jOHiq0MZ--12" target="OUrxc4tBGH3jOHiq0MZ--15" edge="1">
          <mxGeometry relative="1" as="geometry">
            <mxPoint x="730" y="629" as="targetPoint" />
          </mxGeometry>
        </mxCell>
        <mxCell id="OUrxc4tBGH3jOHiq0MZ--12" value="Сторінка керування&amp;nbsp;&lt;br&gt;деревом" style="ellipse;whiteSpace=wrap;html=1;" parent="1" vertex="1">
          <mxGeometry x="610" y="469" width="120" height="80" as="geometry" />
        </mxCell>
        <mxCell id="OUrxc4tBGH3jOHiq0MZ--13" value="Додавання спец.&lt;br&gt;запису" style="ellipse;whiteSpace=wrap;html=1;" parent="1" vertex="1">
          <mxGeometry x="760" y="69" width="120" height="80" as="geometry" />
        </mxCell>
        <mxCell id="OUrxc4tBGH3jOHiq0MZ--15" value="Додавання дерева" style="ellipse;whiteSpace=wrap;html=1;" parent="1" vertex="1">
          <mxGeometry x="340" y="680" width="120" height="80" as="geometry" />
        </mxCell>
        <mxCell id="OUrxc4tBGH3jOHiq0MZ--16" value="Додавання зв&#39;язку&amp;nbsp;&lt;br&gt;Користувач-Дерево" style="ellipse;whiteSpace=wrap;html=1;" parent="1" vertex="1">
          <mxGeometry x="590" y="299" width="120" height="80" as="geometry" />
        </mxCell>
        <mxCell id="OUrxc4tBGH3jOHiq0MZ--51" style="edgeStyle=orthogonalEdgeStyle;rounded=0;orthogonalLoop=1;jettySize=auto;html=1;exitX=0.5;exitY=0;exitDx=0;exitDy=0;entryX=0.5;entryY=1;entryDx=0;entryDy=0;" parent="1" source="OUrxc4tBGH3jOHiq0MZ--17" target="OUrxc4tBGH3jOHiq0MZ--8" edge="1">
          <mxGeometry relative="1" as="geometry" />
        </mxCell>
        <mxCell id="OUrxc4tBGH3jOHiq0MZ--56" style="edgeStyle=orthogonalEdgeStyle;rounded=0;orthogonalLoop=1;jettySize=auto;html=1;exitX=0;exitY=0;exitDx=0;exitDy=0;entryX=1;entryY=0.5;entryDx=0;entryDy=0;" parent="1" source="OUrxc4tBGH3jOHiq0MZ--17" target="OUrxc4tBGH3jOHiq0MZ--55" edge="1">
          <mxGeometry relative="1" as="geometry" />
        </mxCell>
        <mxCell id="OUrxc4tBGH3jOHiq0MZ--17" value="Календар подій" style="ellipse;whiteSpace=wrap;html=1;" parent="1" vertex="1">
          <mxGeometry x="760" y="319" width="120" height="80" as="geometry" />
        </mxCell>
        <mxCell id="OUrxc4tBGH3jOHiq0MZ--18" value="Додавання медіа" style="ellipse;whiteSpace=wrap;html=1;" parent="1" vertex="1">
          <mxGeometry x="950" y="329" width="120" height="80" as="geometry" />
        </mxCell>
        <mxCell id="OUrxc4tBGH3jOHiq0MZ--19" value="Сторінка редагування&amp;nbsp;&lt;br&gt;акаунту" style="ellipse;whiteSpace=wrap;html=1;" parent="1" vertex="1">
          <mxGeometry x="270" y="489" width="120" height="80" as="geometry" />
        </mxCell>
        <mxCell id="OUrxc4tBGH3jOHiq0MZ--46" value="Діаграми" style="ellipse;whiteSpace=wrap;html=1;" parent="1" vertex="1">
          <mxGeometry x="440" y="339" width="120" height="80" as="geometry" />
        </mxCell>
        <mxCell id="OUrxc4tBGH3jOHiq0MZ--49" style="edgeStyle=orthogonalEdgeStyle;rounded=0;orthogonalLoop=1;jettySize=auto;html=1;exitX=1;exitY=1;exitDx=0;exitDy=0;entryX=0.53;entryY=1.006;entryDx=0;entryDy=0;entryPerimeter=0;" parent="1" source="OUrxc4tBGH3jOHiq0MZ--3" target="OUrxc4tBGH3jOHiq0MZ--46" edge="1">
          <mxGeometry relative="1" as="geometry" />
        </mxCell>
        <mxCell id="OUrxc4tBGH3jOHiq0MZ--53" value="Відкриті для перегляду дерева" style="ellipse;whiteSpace=wrap;html=1;" parent="1" vertex="1">
          <mxGeometry x="354" y="139" width="120" height="80" as="geometry" />
        </mxCell>
        <mxCell id="OUrxc4tBGH3jOHiq0MZ--55" value="Додавання події" style="ellipse;whiteSpace=wrap;html=1;" parent="1" vertex="1">
          <mxGeometry x="570" y="189" width="120" height="80" as="geometry" />
        </mxCell>
        <mxCell id="OUrxc4tBGH3jOHiq0MZ--64" style="edgeStyle=orthogonalEdgeStyle;rounded=0;orthogonalLoop=1;jettySize=auto;html=1;exitX=1;exitY=0.5;exitDx=0;exitDy=0;entryX=0.582;entryY=1.018;entryDx=0;entryDy=0;entryPerimeter=0;" parent="1" source="OUrxc4tBGH3jOHiq0MZ--5" target="OUrxc4tBGH3jOHiq0MZ--18" edge="1">
          <mxGeometry relative="1" as="geometry" />
        </mxCell>
      </root>
    </mxGraphModel>
  </diagram>
</mxfile>
